<?xml version="1.0" encoding="UTF-8"?>
<svg xmlns="http://www.w3.org/2000/svg" xmlns:xlink="http://www.w3.org/1999/xlink" width="2291" height="2171" viewBox="0 0 2291 2171">
<path fill-rule="evenodd" fill="rgb(0%, 0%, 0%)" fill-opacity="1" d="M 833.496094 1270.347656 C 709.738281 1270.378906 802.746094 1275.730469 869.777344 1280.496094 L 895.121094 1290.53125 C 895.152344 1290.542969 895.140625 1290.566406 895.167969 1290.578125 C 895.195312 1290.59375 895.234375 1290.597656 895.273438 1290.597656 L 1394.960938 1290.597656 C 1395 1290.597656 1395.039062 1290.589844 1395.070312 1290.578125 C 1395.101562 1290.566406 1395.078125 1290.542969 1395.109375 1290.53125 L 1420.460938 1280.496094 C 1487.488281 1275.730469 1580.5 1270.378906 1456.738281 1270.347656 C 1446.25 1270.34375 1434.210938 1270.378906 1420.460938 1270.457031 C 1420.410156 1270.457031 1420.441406 1270.421875 1420.410156 1270.410156 C 1420.390625 1270.398438 1420.308594 1270.390625 1420.308594 1270.390625 L 869.929688 1270.390625 C 869.929688 1270.390625 869.851562 1270.398438 869.820312 1270.410156 C 869.792969 1270.421875 869.820312 1270.457031 869.777344 1270.457031 C 856.027344 1270.378906 843.984375 1270.34375 833.496094 1270.347656 Z M 833.496094 1270.347656 "/>
<path fill-rule="nonzero" fill="rgb(23.925781%, 9.008789%, 2.352905%)" fill-opacity="1" d="M 865.652344 1207.25 L 865.652344 1208.132812 C 864.660156 1208.210938 863.851562 1208.414062 863.226562 1208.75 C 862.617188 1209.082031 862.066406 1209.621094 861.582031 1210.367188 C 860.902344 1211.390625 860.484375 1212.816406 860.328125 1214.636719 C 860.222656 1215.996094 860.171875 1217.5625 860.171875 1219.332031 L 860.171875 1247.695312 C 860.171875 1249.824219 860.242188 1251.503906 860.382812 1252.738281 C 860.519531 1253.96875 860.746094 1254.957031 861.058594 1255.699219 C 861.511719 1256.726562 862.09375 1257.496094 862.808594 1258.007812 C 863.519531 1258.496094 864.46875 1258.792969 865.652344 1258.894531 L 865.652344 1259.777344 L 848.976562 1259.777344 L 848.976562 1258.894531 C 849.988281 1258.816406 850.796875 1258.613281 851.40625 1258.277344 C 852.03125 1257.917969 852.578125 1257.378906 853.046875 1256.660156 C 853.605469 1255.839844 853.980469 1254.800781 854.171875 1253.542969 C 854.363281 1252.289062 854.457031 1250.335938 854.457031 1247.695312 L 854.457031 1219.332031 C 854.457031 1216.691406 854.363281 1214.738281 854.171875 1213.484375 C 853.980469 1212.226562 853.605469 1211.1875 853.046875 1210.367188 C 852.578125 1209.621094 852.03125 1209.082031 851.40625 1208.75 C 850.777344 1208.414062 849.96875 1208.210938 848.976562 1208.132812 L 848.976562 1207.25 Z M 865.652344 1207.25 "/>
<path fill-rule="nonzero" fill="rgb(23.925781%, 9.008789%, 2.352905%)" fill-opacity="1" d="M 882.300781 1208.441406 C 881.203125 1208.441406 880.03125 1208.492188 878.777344 1208.59375 C 876.097656 1208.800781 874.097656 1209.300781 872.777344 1210.097656 C 871.472656 1210.890625 870.390625 1212.265625 869.539062 1214.214844 C 868.757812 1216.011719 868.15625 1218.449219 867.738281 1221.527344 L 867.140625 1221.449219 L 867.609375 1207.25 L 902.914062 1207.25 L 903.382812 1221.449219 L 902.785156 1221.527344 C 902.3125 1217.960938 901.574219 1215.265625 900.566406 1213.445312 C 899.574219 1211.597656 898.121094 1210.277344 896.207031 1209.480469 C 894.589844 1208.789062 891.851562 1208.441406 887.988281 1208.441406 L 887.988281 1247.695312 C 887.988281 1250.3125 888.082031 1252.261719 888.273438 1253.542969 C 888.484375 1254.800781 888.859375 1255.839844 889.398438 1256.660156 C 889.882812 1257.40625 890.433594 1257.945312 891.042969 1258.277344 C 891.667969 1258.613281 892.476562 1258.816406 893.46875 1258.894531 L 893.46875 1259.777344 L 876.792969 1259.777344 L 876.792969 1258.894531 C 877.804688 1258.816406 878.613281 1258.613281 879.222656 1258.277344 C 879.847656 1257.945312 880.402344 1257.40625 880.890625 1256.660156 C 881.429688 1255.839844 881.796875 1254.800781 881.988281 1253.542969 C 882.195312 1252.289062 882.300781 1250.335938 882.300781 1247.695312 Z M 882.300781 1208.441406 "/>
<path fill-rule="nonzero" fill="rgb(23.925781%, 9.008789%, 2.352905%)" fill-opacity="1" d="M 941.21875 1259.777344 L 924.078125 1259.777344 L 924.078125 1258.894531 C 925.625 1258.6875 926.703125 1258.304688 927.3125 1257.738281 C 928.390625 1256.738281 928.929688 1255.355469 928.929688 1253.582031 C 928.929688 1252.53125 928.6875 1251.121094 928.199219 1249.351562 L 927.753906 1247.734375 L 925.25 1238.652344 L 913.769531 1238.652344 L 912.414062 1243.960938 L 911.761719 1246.347656 C 910.976562 1249.171875 910.585938 1251.390625 910.585938 1253.007812 C 910.585938 1253.957031 910.726562 1254.839844 911.003906 1255.660156 C 911.300781 1256.480469 911.691406 1257.148438 912.175781 1257.664062 C 912.855469 1258.355469 913.726562 1258.765625 914.785156 1258.894531 L 914.785156 1259.777344 L 903.097656 1259.777344 L 903.097656 1258.894531 C 904.019531 1258.816406 904.828125 1258.484375 905.523438 1257.894531 C 906.21875 1257.304688 906.898438 1256.355469 907.558594 1255.046875 C 908.117188 1253.992188 908.65625 1252.648438 909.175781 1251.003906 C 909.714844 1249.335938 910.421875 1246.847656 911.289062 1243.539062 L 920.839844 1207.25 L 922.328125 1207.25 L 933.679688 1247.695312 C 934.53125 1250.75 935.210938 1252.929688 935.714844 1254.238281 C 936.21875 1255.546875 936.765625 1256.535156 937.359375 1257.199219 C 937.777344 1257.664062 938.253906 1258.023438 938.792969 1258.277344 C 939.332031 1258.507812 940.140625 1258.714844 941.21875 1258.894531 Z M 924.832031 1237.074219 L 919.351562 1217.140625 L 914.1875 1237.074219 Z M 924.832031 1237.074219 "/>
<path fill-rule="nonzero" fill="rgb(23.925781%, 9.008789%, 2.352905%)" fill-opacity="1" d="M 941.949219 1259.777344 L 941.949219 1258.855469 C 943.707031 1258.855469 945.0625 1258.125 946.019531 1256.660156 C 946.558594 1255.839844 946.925781 1254.800781 947.117188 1253.542969 C 947.324219 1252.261719 947.429688 1250.3125 947.429688 1247.695312 L 947.429688 1219.332031 C 947.429688 1216.613281 947.316406 1214.613281 947.089844 1213.328125 C 946.882812 1212.019531 946.480469 1210.957031 945.890625 1210.136719 C 945.402344 1209.46875 944.855469 1208.980469 944.246094 1208.671875 C 943.65625 1208.363281 942.890625 1208.183594 941.949219 1208.132812 L 941.949219 1207.25 L 958.625 1207.25 L 958.625 1208.132812 C 957.667969 1208.210938 956.886719 1208.402344 956.277344 1208.710938 C 955.667969 1209.019531 955.128906 1209.507812 954.660156 1210.171875 C 954.066406 1211.019531 953.667969 1212.085938 953.457031 1213.367188 C 953.25 1214.648438 953.144531 1216.640625 953.144531 1219.332031 L 953.144531 1241.539062 C 953.144531 1244.949219 953.207031 1247.488281 953.328125 1249.15625 C 953.449219 1250.824219 953.683594 1252.183594 954.03125 1253.238281 C 954.640625 1255.085938 955.546875 1256.445312 956.746094 1257.316406 C 957.945312 1258.164062 959.539062 1258.585938 961.519531 1258.585938 C 963.589844 1258.585938 965.332031 1258.1875 966.738281 1257.394531 C 968.167969 1256.570312 969.332031 1255.316406 970.238281 1253.621094 C 970.84375 1252.46875 971.339844 1251.160156 971.722656 1249.695312 C 972.125 1248.234375 972.488281 1246.308594 972.820312 1243.921875 L 973.445312 1244 L 973.105469 1259.777344 Z M 941.949219 1259.777344 "/>
<path fill-rule="nonzero" fill="rgb(23.925781%, 9.008789%, 2.352905%)" fill-opacity="1" d="M 991.214844 1207.25 L 991.214844 1208.132812 C 990.222656 1208.210938 989.414062 1208.414062 988.789062 1208.75 C 988.179688 1209.082031 987.632812 1209.621094 987.144531 1210.367188 C 986.464844 1211.390625 986.050781 1212.816406 985.894531 1214.636719 C 985.789062 1215.996094 985.734375 1217.5625 985.734375 1219.332031 L 985.734375 1247.695312 C 985.734375 1249.824219 985.804688 1251.503906 985.945312 1252.738281 C 986.085938 1253.96875 986.308594 1254.957031 986.625 1255.699219 C 987.074219 1256.726562 987.660156 1257.496094 988.371094 1258.007812 C 989.085938 1258.496094 990.03125 1258.792969 991.214844 1258.894531 L 991.214844 1259.777344 L 974.542969 1259.777344 L 974.542969 1258.894531 C 975.550781 1258.816406 976.359375 1258.613281 976.96875 1258.277344 C 977.59375 1257.917969 978.144531 1257.378906 978.613281 1256.660156 C 979.167969 1255.839844 979.542969 1254.800781 979.734375 1253.542969 C 979.925781 1252.289062 980.023438 1250.335938 980.023438 1247.695312 L 980.023438 1219.332031 C 980.023438 1216.691406 979.925781 1214.738281 979.734375 1213.484375 C 979.542969 1212.226562 979.167969 1211.1875 978.613281 1210.367188 C 978.144531 1209.621094 977.59375 1209.082031 976.96875 1208.75 C 976.34375 1208.414062 975.535156 1208.210938 974.542969 1208.132812 L 974.542969 1207.25 Z M 991.214844 1207.25 "/>
<path fill-rule="nonzero" fill="rgb(23.925781%, 9.008789%, 2.352905%)" fill-opacity="1" d="M 1030.101562 1259.777344 L 1012.949219 1259.777344 L 1012.949219 1258.894531 C 1014.5 1258.6875 1015.578125 1258.304688 1016.191406 1257.738281 C 1017.269531 1256.738281 1017.808594 1255.355469 1017.808594 1253.582031 C 1017.808594 1252.53125 1017.558594 1251.121094 1017.070312 1249.351562 L 1016.628906 1247.734375 L 1014.128906 1238.652344 L 1002.640625 1238.652344 L 1001.289062 1243.960938 L 1000.640625 1246.347656 C 999.851562 1249.171875 999.460938 1251.390625 999.460938 1253.007812 C 999.460938 1253.957031 999.601562 1254.839844 999.878906 1255.660156 C 1000.179688 1256.480469 1000.570312 1257.148438 1001.058594 1257.664062 C 1001.730469 1258.355469 1002.601562 1258.765625 1003.660156 1258.894531 L 1003.660156 1259.777344 L 991.972656 1259.777344 L 991.972656 1258.894531 C 992.894531 1258.816406 993.703125 1258.484375 994.398438 1257.894531 C 995.09375 1257.304688 995.773438 1256.355469 996.433594 1255.046875 C 996.992188 1253.992188 997.53125 1252.648438 998.050781 1251.003906 C 998.589844 1249.335938 999.296875 1246.847656 1000.171875 1243.539062 L 1009.71875 1207.25 L 1011.199219 1207.25 L 1022.558594 1247.695312 C 1023.410156 1250.75 1024.089844 1252.929688 1024.589844 1254.238281 C 1025.089844 1255.546875 1025.640625 1256.535156 1026.230469 1257.199219 C 1026.648438 1257.664062 1027.128906 1258.023438 1027.671875 1258.277344 C 1028.210938 1258.507812 1029.019531 1258.714844 1030.101562 1258.894531 Z M 1013.710938 1237.074219 L 1008.230469 1217.140625 L 1003.058594 1237.074219 Z M 1013.710938 1237.074219 "/>
<path fill-rule="nonzero" fill="rgb(23.925781%, 9.008789%, 2.352905%)" fill-opacity="1" d="M 1037.378906 1214.214844 L 1037.378906 1247.695312 C 1037.378906 1250.335938 1037.46875 1252.289062 1037.660156 1253.542969 C 1037.871094 1254.800781 1038.25 1255.839844 1038.789062 1256.660156 C 1039.269531 1257.40625 1039.820312 1257.945312 1040.429688 1258.277344 C 1041.058594 1258.613281 1041.859375 1258.816406 1042.859375 1258.894531 L 1042.859375 1259.777344 L 1030.828125 1259.777344 L 1030.828125 1258.894531 C 1031.820312 1258.816406 1032.621094 1258.613281 1033.230469 1258.277344 C 1033.851562 1257.945312 1034.410156 1257.40625 1034.898438 1256.660156 C 1035.441406 1255.839844 1035.800781 1254.800781 1035.988281 1253.542969 C 1036.199219 1252.261719 1036.308594 1250.3125 1036.308594 1247.695312 L 1036.308594 1219.292969 C 1036.308594 1216.703125 1036.199219 1214.777344 1035.988281 1213.523438 C 1035.800781 1212.238281 1035.441406 1211.1875 1034.898438 1210.367188 C 1034.429688 1209.621094 1033.878906 1209.082031 1033.25 1208.75 C 1032.640625 1208.414062 1031.839844 1208.210938 1030.828125 1208.132812 L 1030.828125 1207.25 L 1040.871094 1207.25 L 1062.058594 1247.117188 L 1062.058594 1219.332031 C 1062.058594 1216.691406 1061.960938 1214.738281 1061.75 1213.484375 C 1061.558594 1212.226562 1061.191406 1211.1875 1060.648438 1210.367188 C 1060.160156 1209.621094 1059.609375 1209.082031 1058.980469 1208.75 C 1058.371094 1208.414062 1057.570312 1208.210938 1056.578125 1208.132812 L 1056.578125 1207.25 L 1068.609375 1207.25 L 1068.609375 1208.132812 C 1066.871094 1208.132812 1065.519531 1208.878906 1064.539062 1210.367188 C 1064 1211.1875 1063.628906 1212.238281 1063.421875 1213.523438 C 1063.230469 1214.777344 1063.128906 1216.703125 1063.128906 1219.292969 L 1063.128906 1259.777344 L 1061.960938 1259.777344 Z M 1037.378906 1214.214844 "/>
<path fill-rule="nonzero" fill="rgb(23.925781%, 9.008789%, 2.352905%)" fill-opacity="1" d="M 1095.75 1234.070312 L 1095.75 1247.695312 C 1095.75 1250.3125 1095.839844 1252.261719 1096.039062 1253.542969 C 1096.238281 1254.800781 1096.621094 1255.839844 1097.160156 1256.660156 C 1097.628906 1257.378906 1098.171875 1257.917969 1098.769531 1258.277344 C 1099.398438 1258.613281 1100.21875 1258.816406 1101.230469 1258.894531 L 1101.230469 1259.777344 L 1084.558594 1259.777344 L 1084.558594 1258.894531 C 1085.558594 1258.816406 1086.371094 1258.613281 1086.980469 1258.277344 C 1087.609375 1257.917969 1088.160156 1257.378906 1088.628906 1256.660156 C 1089.179688 1255.839844 1089.558594 1254.800781 1089.75 1253.542969 C 1089.941406 1252.289062 1090.039062 1250.335938 1090.039062 1247.695312 L 1090.039062 1219.332031 C 1090.039062 1216.691406 1089.941406 1214.738281 1089.75 1213.484375 C 1089.558594 1212.226562 1089.179688 1211.1875 1088.628906 1210.367188 C 1088.160156 1209.621094 1087.609375 1209.082031 1086.980469 1208.75 C 1086.359375 1208.414062 1085.550781 1208.210938 1084.558594 1208.132812 L 1084.558594 1207.25 L 1097.128906 1207.25 C 1099.230469 1207.25 1100.621094 1207.261719 1101.28125 1207.285156 C 1103.980469 1207.464844 1106.089844 1208.003906 1107.621094 1208.902344 C 1109.339844 1209.929688 1110.671875 1211.46875 1111.609375 1213.519531 C 1112.570312 1215.546875 1113.050781 1217.910156 1113.050781 1220.601562 C 1113.050781 1224.605469 1112.019531 1227.8125 1109.96875 1230.222656 C 1109.339844 1230.941406 1108.648438 1231.53125 1107.878906 1231.992188 C 1107.128906 1232.457031 1106.128906 1232.890625 1104.859375 1233.300781 C 1105.898438 1233.945312 1106.671875 1234.609375 1107.179688 1235.304688 C 1107.578125 1235.84375 1107.941406 1236.523438 1108.269531 1237.34375 C 1108.609375 1238.136719 1109.101562 1239.5625 1109.761719 1241.613281 C 1111.308594 1246.308594 1112.46875 1249.746094 1113.261719 1251.929688 C 1114.058594 1254.082031 1114.730469 1255.648438 1115.269531 1256.625 C 1115.699219 1257.417969 1116.121094 1257.96875 1116.519531 1258.277344 C 1116.941406 1258.585938 1117.5 1258.792969 1118.210938 1258.894531 L 1118.210938 1259.777344 L 1109.550781 1259.777344 C 1109.121094 1258.367188 1108.839844 1257.46875 1108.710938 1257.085938 L 1106.890625 1250.964844 C 1105.789062 1247.296875 1104.691406 1244.050781 1103.578125 1241.230469 C 1102.460938 1238.433594 1101.441406 1236.523438 1100.519531 1235.496094 C 1100.058594 1234.984375 1099.550781 1234.625 1099.011719 1234.417969 C 1098.46875 1234.1875 1097.808594 1234.070312 1097.03125 1234.070312 Z M 1095.75 1233.226562 L 1096.738281 1233.226562 C 1098.898438 1233.226562 1100.441406 1233.046875 1101.359375 1232.6875 C 1102.300781 1232.328125 1103.179688 1231.582031 1103.988281 1230.453125 C 1105.820312 1227.890625 1106.730469 1224.707031 1106.730469 1220.910156 C 1106.730469 1218.882812 1106.460938 1216.984375 1105.929688 1215.214844 C 1105.398438 1213.417969 1104.671875 1211.945312 1103.730469 1210.789062 C 1103 1209.917969 1102.128906 1209.3125 1101.128906 1208.980469 C 1100.109375 1208.621094 1098.679688 1208.441406 1096.820312 1208.441406 L 1095.75 1208.441406 Z M 1095.75 1233.226562 "/>
<path fill-rule="nonzero" fill="rgb(23.925781%, 9.008789%, 2.352905%)" fill-opacity="1" d="M 1147.210938 1207.25 L 1147.648438 1219.949219 L 1147.050781 1219.988281 C 1146.820312 1217.832031 1146.449219 1216.046875 1145.929688 1214.636719 C 1145.410156 1213.226562 1144.648438 1211.980469 1143.660156 1210.90625 C 1142.839844 1210.007812 1141.878906 1209.378906 1140.761719 1209.019531 C 1139.648438 1208.632812 1138.171875 1208.441406 1136.320312 1208.441406 L 1130.351562 1208.441406 L 1130.351562 1231.53125 L 1131.910156 1231.53125 C 1133.5 1231.53125 1134.691406 1231.378906 1135.488281 1231.070312 C 1136.289062 1230.761719 1136.941406 1230.210938 1137.441406 1229.414062 C 1137.929688 1228.671875 1138.289062 1227.800781 1138.519531 1226.796875 C 1138.761719 1225.773438 1138.960938 1224.269531 1139.121094 1222.296875 L 1139.710938 1222.335938 L 1139.609375 1242.960938 L 1139.011719 1242.960938 C 1138.859375 1240.984375 1138.621094 1239.394531 1138.308594 1238.191406 C 1138.011719 1236.984375 1137.589844 1235.957031 1137.058594 1235.109375 C 1136.53125 1234.289062 1135.859375 1233.6875 1135.019531 1233.300781 C 1134.179688 1232.917969 1133.128906 1232.726562 1131.839844 1232.726562 L 1130.351562 1232.726562 L 1130.351562 1241.539062 C 1130.351562 1245.050781 1130.410156 1247.617188 1130.53125 1249.234375 C 1130.648438 1250.824219 1130.890625 1252.160156 1131.230469 1253.238281 C 1131.828125 1255.085938 1132.71875 1256.445312 1133.921875 1257.316406 C 1135.140625 1258.164062 1136.738281 1258.585938 1138.730469 1258.585938 C 1140.808594 1258.585938 1142.558594 1258.203125 1143.96875 1257.429688 C 1145.378906 1256.636719 1146.53125 1255.417969 1147.410156 1253.777344 C 1148.039062 1252.671875 1148.539062 1251.414062 1148.929688 1250.003906 C 1149.328125 1248.59375 1149.691406 1246.734375 1150.019531 1244.425781 L 1150.628906 1244.460938 L 1150.289062 1259.777344 L 1119.148438 1259.777344 L 1119.148438 1258.894531 C 1120.140625 1258.816406 1120.941406 1258.613281 1121.558594 1258.277344 C 1122.179688 1257.945312 1122.738281 1257.40625 1123.230469 1256.660156 C 1123.769531 1255.839844 1124.128906 1254.800781 1124.320312 1253.542969 C 1124.53125 1252.261719 1124.628906 1250.3125 1124.628906 1247.695312 L 1124.628906 1219.332031 C 1124.628906 1216.714844 1124.53125 1214.777344 1124.320312 1213.519531 C 1124.128906 1212.238281 1123.769531 1211.1875 1123.230469 1210.367188 C 1122.75 1209.621094 1122.210938 1209.082031 1121.578125 1208.75 C 1120.96875 1208.414062 1120.160156 1208.210938 1119.148438 1208.132812 L 1119.148438 1207.25 Z M 1147.210938 1207.25 "/>
<path fill-rule="nonzero" fill="rgb(23.925781%, 9.008789%, 2.352905%)" fill-opacity="1" d="M 1153.730469 1259.664062 L 1153.808594 1243.769531 L 1154.410156 1243.769531 C 1155.140625 1247.824219 1156.011719 1251.019531 1157.019531 1253.351562 C 1158.910156 1257.664062 1161.300781 1259.816406 1164.171875 1259.816406 C 1166.171875 1259.816406 1167.820312 1258.828125 1169.128906 1256.855469 C 1170.429688 1254.878906 1171.078125 1252.378906 1171.078125 1249.351562 C 1171.078125 1248.042969 1170.929688 1246.707031 1170.640625 1245.347656 C 1170.359375 1243.988281 1169.980469 1242.820312 1169.488281 1241.84375 C 1168.980469 1240.84375 1168.269531 1239.882812 1167.351562 1238.960938 C 1166.441406 1238.035156 1165.058594 1236.867188 1163.179688 1235.457031 C 1161.519531 1234.226562 1160.25 1233.1875 1159.359375 1232.339844 C 1158.5 1231.492188 1157.789062 1230.632812 1157.25 1229.761719 C 1155.75 1227.351562 1155.011719 1224.414062 1155.011719 1220.949219 C 1155.011719 1218.820312 1155.289062 1216.765625 1155.871094 1214.792969 C 1156.460938 1212.816406 1157.28125 1211.121094 1158.320312 1209.710938 C 1160.160156 1207.199219 1162.351562 1205.941406 1164.871094 1205.941406 C 1165.691406 1205.941406 1166.441406 1206.070312 1167.140625 1206.324219 C 1167.839844 1206.554688 1168.769531 1207.03125 1169.929688 1207.75 C 1170.808594 1208.261719 1171.390625 1208.59375 1171.710938 1208.75 C 1172.019531 1208.878906 1172.300781 1208.941406 1172.539062 1208.941406 C 1173.148438 1208.941406 1173.558594 1208.289062 1173.769531 1206.980469 L 1174.371094 1206.980469 L 1174.550781 1222.257812 L 1173.949219 1222.257812 C 1173.480469 1219.820312 1173.070312 1217.960938 1172.730469 1216.675781 C 1172.390625 1215.367188 1172 1214.164062 1171.519531 1213.058594 C 1170.671875 1211.058594 1169.730469 1209.582031 1168.710938 1208.632812 C 1167.679688 1207.660156 1166.5 1207.171875 1165.160156 1207.171875 C 1163.210938 1207.171875 1161.671875 1208.148438 1160.539062 1210.097656 C 1160.070312 1210.890625 1159.691406 1211.828125 1159.421875 1212.90625 C 1159.160156 1213.984375 1159.03125 1215.0625 1159.03125 1216.136719 C 1159.03125 1220.421875 1160.890625 1223.875 1164.640625 1226.492188 L 1168.320312 1229.109375 C 1171.148438 1231.082031 1173.191406 1233.265625 1174.449219 1235.648438 C 1175.878906 1238.316406 1176.589844 1241.421875 1176.589844 1244.960938 C 1176.589844 1247.324219 1176.269531 1249.582031 1175.621094 1251.734375 C 1174.71875 1254.738281 1173.359375 1257.058594 1171.550781 1258.703125 C 1169.738281 1260.316406 1167.609375 1261.125 1165.160156 1261.125 C 1162.910156 1261.125 1160.761719 1260.472656 1158.691406 1259.164062 C 1157.609375 1258.472656 1156.960938 1258.074219 1156.75 1257.96875 C 1156.550781 1257.867188 1156.308594 1257.816406 1156.050781 1257.816406 C 1155.210938 1257.816406 1154.640625 1258.433594 1154.328125 1259.664062 Z M 1153.730469 1259.664062 "/>
<path fill-rule="nonzero" fill="rgb(23.925781%, 9.008789%, 2.352905%)" fill-opacity="1" d="M 1194.179688 1208.441406 C 1193.078125 1208.441406 1191.898438 1208.492188 1190.648438 1208.59375 C 1187.96875 1208.800781 1185.96875 1209.300781 1184.648438 1210.097656 C 1183.339844 1210.890625 1182.269531 1212.265625 1181.410156 1214.214844 C 1180.628906 1216.011719 1180.03125 1218.449219 1179.609375 1221.527344 L 1179.019531 1221.449219 L 1179.480469 1207.25 L 1214.789062 1207.25 L 1215.261719 1221.449219 L 1214.660156 1221.527344 C 1214.191406 1217.960938 1213.449219 1215.265625 1212.441406 1213.445312 C 1211.449219 1211.597656 1210 1210.277344 1208.078125 1209.480469 C 1206.460938 1208.789062 1203.730469 1208.441406 1199.859375 1208.441406 L 1199.859375 1247.695312 C 1199.859375 1250.3125 1199.960938 1252.261719 1200.148438 1253.542969 C 1200.359375 1254.800781 1200.730469 1255.839844 1201.269531 1256.660156 C 1201.761719 1257.40625 1202.308594 1257.945312 1202.910156 1258.277344 C 1203.539062 1258.613281 1204.351562 1258.816406 1205.339844 1258.894531 L 1205.339844 1259.777344 L 1188.671875 1259.777344 L 1188.671875 1258.894531 C 1189.679688 1258.816406 1190.488281 1258.613281 1191.089844 1258.277344 C 1191.71875 1257.945312 1192.28125 1257.40625 1192.769531 1256.660156 C 1193.308594 1255.839844 1193.671875 1254.800781 1193.859375 1253.542969 C 1194.070312 1252.289062 1194.179688 1250.335938 1194.179688 1247.695312 Z M 1194.179688 1208.441406 "/>
<path fill-rule="nonzero" fill="rgb(23.925781%, 9.008789%, 2.352905%)" fill-opacity="1" d="M 1253.089844 1259.777344 L 1235.949219 1259.777344 L 1235.949219 1258.894531 C 1237.5 1258.6875 1238.578125 1258.304688 1239.191406 1257.738281 C 1240.269531 1256.738281 1240.808594 1255.355469 1240.808594 1253.582031 C 1240.808594 1252.53125 1240.558594 1251.121094 1240.070312 1249.351562 L 1239.628906 1247.734375 L 1237.128906 1238.652344 L 1225.640625 1238.652344 L 1224.289062 1243.960938 L 1223.628906 1246.347656 C 1222.851562 1249.171875 1222.460938 1251.390625 1222.460938 1253.007812 C 1222.460938 1253.957031 1222.601562 1254.839844 1222.878906 1255.660156 C 1223.171875 1256.480469 1223.570312 1257.148438 1224.050781 1257.664062 C 1224.730469 1258.355469 1225.601562 1258.765625 1226.660156 1258.894531 L 1226.660156 1259.777344 L 1214.96875 1259.777344 L 1214.96875 1258.894531 C 1215.890625 1258.816406 1216.699219 1258.484375 1217.398438 1257.894531 C 1218.089844 1257.304688 1218.769531 1256.355469 1219.429688 1255.046875 C 1219.988281 1253.992188 1220.53125 1252.648438 1221.050781 1251.003906 C 1221.589844 1249.335938 1222.289062 1246.847656 1223.160156 1243.539062 L 1232.710938 1207.25 L 1234.199219 1207.25 L 1245.558594 1247.695312 C 1246.410156 1250.75 1247.089844 1252.929688 1247.589844 1254.238281 C 1248.089844 1255.546875 1248.640625 1256.535156 1249.230469 1257.199219 C 1249.648438 1257.664062 1250.128906 1258.023438 1250.671875 1258.277344 C 1251.210938 1258.507812 1252.019531 1258.714844 1253.089844 1258.894531 Z M 1236.710938 1237.074219 L 1231.230469 1217.140625 L 1226.058594 1237.074219 Z M 1236.710938 1237.074219 "/>
<path fill-rule="nonzero" fill="rgb(23.925781%, 9.008789%, 2.352905%)" fill-opacity="1" d="M 1270.128906 1207.25 L 1270.128906 1208.132812 C 1269.140625 1208.210938 1268.328125 1208.414062 1267.710938 1208.75 C 1267.078125 1209.082031 1266.53125 1209.621094 1266.058594 1210.367188 C 1265.488281 1211.238281 1265.109375 1212.316406 1264.910156 1213.597656 C 1264.738281 1214.882812 1264.648438 1217.085938 1264.648438 1220.21875 L 1264.648438 1242 C 1264.648438 1245.539062 1264.738281 1248.105469 1264.910156 1249.695312 C 1265.109375 1251.261719 1265.480469 1252.710938 1266.039062 1254.046875 C 1266.871094 1256.070312 1267.898438 1257.546875 1269.121094 1258.472656 C 1270.351562 1259.367188 1271.898438 1259.816406 1273.761719 1259.816406 C 1275.570312 1259.816406 1277.289062 1259.421875 1278.929688 1258.625 C 1280.578125 1257.804688 1281.949219 1256.675781 1283.050781 1255.238281 C 1283.730469 1254.339844 1284.21875 1253.363281 1284.539062 1252.3125 C 1284.871094 1251.261719 1285.089844 1249.925781 1285.191406 1248.3125 C 1285.261719 1247.257812 1285.289062 1244.769531 1285.289062 1240.84375 L 1285.289062 1219.332031 C 1285.289062 1216.691406 1285.191406 1214.738281 1284.980469 1213.484375 C 1284.789062 1212.226562 1284.429688 1211.1875 1283.890625 1210.367188 C 1283.398438 1209.621094 1282.839844 1209.082031 1282.210938 1208.75 C 1281.609375 1208.414062 1280.808594 1208.210938 1279.820312 1208.132812 L 1279.820312 1207.25 L 1291.839844 1207.25 L 1291.839844 1208.132812 C 1290.851562 1208.210938 1290.039062 1208.414062 1289.421875 1208.75 C 1288.808594 1209.082031 1288.261719 1209.621094 1287.769531 1210.367188 C 1287.230469 1211.1875 1286.859375 1212.238281 1286.648438 1213.523438 C 1286.460938 1214.777344 1286.359375 1216.714844 1286.359375 1219.332031 L 1286.359375 1243.617188 C 1286.359375 1247.207031 1286.171875 1249.863281 1285.789062 1251.582031 C 1285.429688 1253.277344 1284.679688 1254.828125 1283.570312 1256.238281 C 1281.03125 1259.472656 1277.410156 1261.085938 1272.691406 1261.085938 C 1267.769531 1261.085938 1264.140625 1259.5625 1261.808594 1256.507812 C 1260.300781 1254.558594 1259.390625 1251.992188 1259.101562 1248.8125 C 1258.988281 1247.683594 1258.941406 1245.644531 1258.941406 1242.691406 L 1258.941406 1219.332031 C 1258.941406 1216.691406 1258.839844 1214.738281 1258.648438 1213.484375 C 1258.460938 1212.226562 1258.089844 1211.1875 1257.53125 1210.367188 C 1257.058594 1209.621094 1256.511719 1209.082031 1255.890625 1208.75 C 1255.28125 1208.414062 1254.46875 1208.210938 1253.460938 1208.132812 L 1253.460938 1207.25 Z M 1270.128906 1207.25 "/>
<path fill-rule="nonzero" fill="rgb(23.925781%, 9.008789%, 2.352905%)" fill-opacity="1" d="M 1305.261719 1234.070312 L 1305.261719 1247.695312 C 1305.261719 1250.3125 1305.351562 1252.261719 1305.539062 1253.542969 C 1305.75 1254.800781 1306.128906 1255.839844 1306.660156 1256.660156 C 1307.140625 1257.378906 1307.679688 1257.917969 1308.28125 1258.277344 C 1308.910156 1258.613281 1309.730469 1258.816406 1310.730469 1258.894531 L 1310.730469 1259.777344 L 1294.058594 1259.777344 L 1294.058594 1258.894531 C 1295.070312 1258.816406 1295.878906 1258.613281 1296.488281 1258.277344 C 1297.109375 1257.917969 1297.660156 1257.378906 1298.128906 1256.660156 C 1298.691406 1255.839844 1299.058594 1254.800781 1299.25 1253.542969 C 1299.441406 1252.289062 1299.539062 1250.335938 1299.539062 1247.695312 L 1299.539062 1219.332031 C 1299.539062 1216.691406 1299.441406 1214.738281 1299.25 1213.484375 C 1299.058594 1212.226562 1298.691406 1211.1875 1298.128906 1210.367188 C 1297.660156 1209.621094 1297.109375 1209.082031 1296.488281 1208.75 C 1295.859375 1208.414062 1295.058594 1208.210938 1294.058594 1208.132812 L 1294.058594 1207.25 L 1306.640625 1207.25 C 1308.738281 1207.25 1310.128906 1207.261719 1310.789062 1207.285156 C 1313.480469 1207.464844 1315.601562 1208.003906 1317.128906 1208.902344 C 1318.851562 1209.929688 1320.179688 1211.46875 1321.121094 1213.519531 C 1322.078125 1215.546875 1322.558594 1217.910156 1322.558594 1220.601562 C 1322.558594 1224.605469 1321.53125 1227.8125 1319.480469 1230.222656 C 1318.851562 1230.941406 1318.160156 1231.53125 1317.390625 1231.992188 C 1316.640625 1232.457031 1315.628906 1232.890625 1314.359375 1233.300781 C 1315.410156 1233.945312 1316.179688 1234.609375 1316.679688 1235.304688 C 1317.089844 1235.84375 1317.449219 1236.523438 1317.78125 1237.34375 C 1318.109375 1238.136719 1318.609375 1239.5625 1319.269531 1241.613281 C 1320.820312 1246.308594 1321.980469 1249.746094 1322.769531 1251.929688 C 1323.570312 1254.082031 1324.230469 1255.648438 1324.769531 1256.625 C 1325.210938 1257.417969 1325.628906 1257.96875 1326.03125 1258.277344 C 1326.441406 1258.585938 1327.011719 1258.792969 1327.71875 1258.894531 L 1327.71875 1259.777344 L 1319.058594 1259.777344 C 1318.628906 1258.367188 1318.351562 1257.46875 1318.230469 1257.085938 L 1316.398438 1250.964844 C 1315.300781 1247.296875 1314.199219 1244.050781 1313.089844 1241.230469 C 1311.96875 1238.433594 1310.949219 1236.523438 1310.03125 1235.496094 C 1309.558594 1234.984375 1309.058594 1234.625 1308.519531 1234.417969 C 1307.980469 1234.1875 1307.320312 1234.070312 1306.539062 1234.070312 Z M 1305.261719 1233.226562 L 1306.25 1233.226562 C 1308.410156 1233.226562 1309.941406 1233.046875 1310.871094 1232.6875 C 1311.808594 1232.328125 1312.679688 1231.582031 1313.5 1230.453125 C 1315.328125 1227.890625 1316.238281 1224.707031 1316.238281 1220.910156 C 1316.238281 1218.882812 1315.96875 1216.984375 1315.429688 1215.214844 C 1314.910156 1213.417969 1314.179688 1211.945312 1313.238281 1210.789062 C 1312.511719 1209.917969 1311.640625 1209.3125 1310.628906 1208.980469 C 1309.621094 1208.621094 1308.191406 1208.441406 1306.320312 1208.441406 L 1305.261719 1208.441406 Z M 1305.261719 1233.226562 "/>
<path fill-rule="nonzero" fill="rgb(23.925781%, 9.008789%, 2.352905%)" fill-opacity="1" d="M 1364.980469 1259.777344 L 1347.839844 1259.777344 L 1347.839844 1258.894531 C 1349.390625 1258.6875 1350.46875 1258.304688 1351.078125 1257.738281 C 1352.160156 1256.738281 1352.691406 1255.355469 1352.691406 1253.582031 C 1352.691406 1252.53125 1352.449219 1251.121094 1351.960938 1249.351562 L 1351.519531 1247.734375 L 1349.019531 1238.652344 L 1337.539062 1238.652344 L 1336.179688 1243.960938 L 1335.519531 1246.347656 C 1334.738281 1249.171875 1334.351562 1251.390625 1334.351562 1253.007812 C 1334.351562 1253.957031 1334.488281 1254.839844 1334.769531 1255.660156 C 1335.058594 1256.480469 1335.460938 1257.148438 1335.941406 1257.664062 C 1336.621094 1258.355469 1337.488281 1258.765625 1338.550781 1258.894531 L 1338.550781 1259.777344 L 1326.859375 1259.777344 L 1326.859375 1258.894531 C 1327.789062 1258.816406 1328.589844 1258.484375 1329.289062 1257.894531 C 1329.980469 1257.304688 1330.660156 1256.355469 1331.320312 1255.046875 C 1331.878906 1253.992188 1332.421875 1252.648438 1332.941406 1251.003906 C 1333.480469 1249.335938 1334.191406 1246.847656 1335.058594 1243.539062 L 1344.609375 1207.25 L 1346.089844 1207.25 L 1357.441406 1247.695312 C 1358.300781 1250.75 1358.980469 1252.929688 1359.480469 1254.238281 C 1359.980469 1255.546875 1360.53125 1256.535156 1361.128906 1257.199219 C 1361.539062 1257.664062 1362.019531 1258.023438 1362.558594 1258.277344 C 1363.101562 1258.507812 1363.910156 1258.714844 1364.980469 1258.894531 Z M 1348.601562 1237.074219 L 1343.121094 1217.140625 L 1337.949219 1237.074219 Z M 1348.601562 1237.074219 "/>
<path fill-rule="nonzero" fill="rgb(23.925781%, 9.008789%, 2.352905%)" fill-opacity="1" d="M 1372.269531 1214.214844 L 1372.269531 1247.695312 C 1372.269531 1250.335938 1372.359375 1252.289062 1372.550781 1253.542969 C 1372.761719 1254.800781 1373.140625 1255.839844 1373.679688 1256.660156 C 1374.160156 1257.40625 1374.710938 1257.945312 1375.320312 1258.277344 C 1375.941406 1258.613281 1376.75 1258.816406 1377.75 1258.894531 L 1377.75 1259.777344 L 1365.710938 1259.777344 L 1365.710938 1258.894531 C 1366.710938 1258.816406 1367.511719 1258.613281 1368.121094 1258.277344 C 1368.738281 1257.945312 1369.300781 1257.40625 1369.789062 1256.660156 C 1370.320312 1255.839844 1370.691406 1254.800781 1370.878906 1253.542969 C 1371.089844 1252.261719 1371.191406 1250.3125 1371.191406 1247.695312 L 1371.191406 1219.292969 C 1371.191406 1216.703125 1371.089844 1214.777344 1370.878906 1213.523438 C 1370.691406 1212.238281 1370.320312 1211.1875 1369.789062 1210.367188 C 1369.320312 1209.621094 1368.769531 1209.082031 1368.140625 1208.75 C 1367.539062 1208.414062 1366.730469 1208.210938 1365.710938 1208.132812 L 1365.710938 1207.25 L 1375.761719 1207.25 L 1396.949219 1247.117188 L 1396.949219 1219.332031 C 1396.949219 1216.691406 1396.851562 1214.738281 1396.640625 1213.484375 C 1396.441406 1212.226562 1396.078125 1211.1875 1395.539062 1210.367188 C 1395.058594 1209.621094 1394.5 1209.082031 1393.871094 1208.75 C 1393.261719 1208.414062 1392.460938 1208.210938 1391.46875 1208.132812 L 1391.46875 1207.25 L 1403.5 1207.25 L 1403.5 1208.132812 C 1401.761719 1208.132812 1400.398438 1208.878906 1399.429688 1210.367188 C 1398.890625 1211.1875 1398.519531 1212.238281 1398.308594 1213.523438 C 1398.121094 1214.777344 1398.019531 1216.703125 1398.019531 1219.292969 L 1398.019531 1259.777344 L 1396.851562 1259.777344 Z M 1372.269531 1214.214844 "/>
<path fill-rule="nonzero" fill="rgb(23.925781%, 9.008789%, 2.352905%)" fill-opacity="1" d="M 1420.171875 1208.441406 C 1419.078125 1208.441406 1417.898438 1208.492188 1416.648438 1208.59375 C 1413.96875 1208.800781 1411.96875 1209.300781 1410.648438 1210.097656 C 1409.339844 1210.890625 1408.269531 1212.265625 1407.410156 1214.214844 C 1406.628906 1216.011719 1406.03125 1218.449219 1405.609375 1221.527344 L 1405.011719 1221.449219 L 1405.480469 1207.25 L 1440.789062 1207.25 L 1441.261719 1221.449219 L 1440.660156 1221.527344 C 1440.191406 1217.960938 1439.449219 1215.265625 1438.441406 1213.445312 C 1437.449219 1211.597656 1436 1210.277344 1434.078125 1209.480469 C 1432.460938 1208.789062 1429.71875 1208.441406 1425.859375 1208.441406 L 1425.859375 1247.695312 C 1425.859375 1250.3125 1425.960938 1252.261719 1426.148438 1253.542969 C 1426.359375 1254.800781 1426.730469 1255.839844 1427.269531 1256.660156 C 1427.761719 1257.40625 1428.308594 1257.945312 1428.910156 1258.277344 C 1429.539062 1258.613281 1430.351562 1258.816406 1431.339844 1258.894531 L 1431.339844 1259.777344 L 1414.671875 1259.777344 L 1414.671875 1258.894531 C 1415.679688 1258.816406 1416.480469 1258.613281 1417.089844 1258.277344 C 1417.71875 1257.945312 1418.28125 1257.40625 1418.769531 1256.660156 C 1419.308594 1255.839844 1419.671875 1254.800781 1419.859375 1253.542969 C 1420.070312 1252.289062 1420.171875 1250.335938 1420.171875 1247.695312 Z M 1420.171875 1208.441406 "/>
<path fill-rule="evenodd" fill="rgb(0%, 0%, 0%)" fill-opacity="1" d="M 1144.710938 921.128906 C 1144.058594 921.128906 1143.390625 921.128906 1142.730469 921.140625 C 979.082031 922.339844 846.195312 1044.730469 842.941406 1197.230469 L 1447.289062 1197.230469 C 1444.019531 1043.71875 1309.449219 920.929688 1144.710938 921.128906 Z M 1144.710938 921.128906 "/>
<path fill-rule="evenodd" fill="rgb(0%, 0%, 0%)" fill-opacity="1" d="M 1125.769531 883.328125 C 1137.191406 879.558594 1150.230469 878.429688 1166.96875 883.328125 C 1167.300781 883.429688 1167.601562 883.589844 1167.601562 883.921875 C 1167.429688 901.011719 1147.5 912.628906 1167.601562 935.511719 C 1167.820312 935.761719 1167.320312 936.101562 1166.96875 936.101562 L 1125.769531 936.101562 C 1125.421875 936.101562 1124.859375 935.699219 1125.140625 935.511719 C 1146.949219 920.519531 1126.128906 901.160156 1125.140625 883.921875 C 1125.121094 883.589844 1125.441406 883.441406 1125.769531 883.328125 Z M 1125.769531 883.328125 "/>
<path fill-rule="evenodd" fill="rgb(94.921875%, 94.921875%, 94.921875%)" fill-opacity="1" d="M 1125.148438 942.648438 C 1124.558594 942.648438 1123.96875 942.648438 1123.378906 942.660156 C 932.898438 934.738281 854.730469 1130.78125 882.914062 1163.960938 C 943.269531 1222.058594 887.417969 965.910156 1125.148438 942.648438 Z M 1125.148438 942.648438 "/>
<path fill-rule="evenodd" fill="rgb(94.921875%, 94.921875%, 94.921875%)" fill-opacity="1" d="M 1129.320312 884.160156 C 1138.589844 881.101562 1149.070312 880.511719 1161.570312 882.738281 C 1161.570312 882.738281 1126.878906 875.519531 1139.660156 909.929688 C 1140.28125 911.589844 1139.789062 917.941406 1138.609375 919.96875 C 1138.269531 905.929688 1129.359375 896.191406 1128.691406 884.75 C 1128.679688 884.421875 1129 884.269531 1129.320312 884.160156 Z M 1129.320312 884.160156 "/>
<path fill-rule="nonzero" fill="rgb(100%, 100%, 100%)" fill-opacity="1" stroke-width="39.7649" stroke-linecap="butt" stroke-linejoin="miter" stroke="rgb(100%, 100%, 100%)" stroke-opacity="1" stroke-miterlimit="4" d="M 9780.039062 11018.28125 C 9783.710938 11013.984375 9788.90625 11007.304688 9795.664062 10998.203125 C 9798.945312 10993.789062 9802.421875 10989.414062 9806.09375 10985.117188 C 9808.828125 10981.796875 9814.960938 10974.882812 9824.453125 10964.414062 C 9833.945312 10953.984375 9840.273438 10947.890625 9843.515625 10946.015625 C 9846.835938 10944.21875 9851.25 10943.515625 9856.71875 10943.789062 C 9862.265625 10944.296875 9867.109375 10946.09375 9871.171875 10949.21875 C 9875.820312 10952.695312 9878.867188 10953.515625 9880.351562 10951.796875 C 9881.484375 10950.507812 9881.523438 10949.101562 9880.429688 10947.695312 C 9879.257812 10946.289062 9874.257812 10941.914062 9865.46875 10934.414062 L 9825.859375 10901.09375 C 9814.765625 10891.601562 9808.710938 10886.71875 9807.695312 10886.289062 C 9806.71875 10886.210938 9805.78125 10886.484375 9805 10887.5 C 9803.671875 10888.984375 9804.53125 10891.71875 9807.5 10895.585938 C 9812.695312 10902.5 9815.234375 10908.515625 9815.117188 10913.710938 C 9815.117188 10918.90625 9811.09375 10926.796875 9803.164062 10937.304688 C 9795.117188 10948.007812 9785.46875 10959.882812 9774.257812 10973.085938 L 9741.25 11011.09375 L 9706.5625 11052.8125 C 9694.101562 11067.382812 9685.195312 11075.898438 9679.765625 11078.203125 C 9674.257812 11080.585938 9668.125 11079.804688 9661.40625 11075.898438 C 9654.101562 11071.71875 9649.765625 11070.390625 9648.398438 11072.109375 C 9646.992188 11073.710938 9647.734375 11075.703125 9650.625 11078.203125 L 9679.140625 11102.109375 L 9724.570312 11141.289062 C 9754.609375 11166.796875 9778.789062 11179.296875 9797.070312 11178.59375 C 9815.46875 11178.085938 9830.664062 11170.898438 9842.617188 11156.796875 C 9856.835938 11140 9860.742188 11121.71875 9854.296875 11101.71875 C 9847.890625 11081.796875 9831.015625 11060.195312 9803.75 11036.992188 C 9797.148438 11031.40625 9789.257812 11025.195312 9780.039062 11018.28125 Z M 9775.15625 11024.101562 C 9789.648438 11035.585938 9797.8125 11042.109375 9799.726562 11043.789062 C 9809.492188 11051.992188 9817.265625 11061.484375 9823.046875 11072.1875 C 9828.789062 11082.890625 9829.960938 11094.21875 9826.484375 11106.289062 C 9823.085938 11118.398438 9817.773438 11128.710938 9810.546875 11137.1875 C 9801.367188 11148.007812 9789.882812 11153.984375 9776.171875 11155.195312 C 9762.5 11156.601562 9746.132812 11149.21875 9727.070312 11133.007812 C 9717.226562 11124.609375 9709.492188 11116.289062 9703.945312 11107.890625 C 9706.757812 11104.414062 9708.554688 11102.1875 9709.257812 11101.289062 L 9737.890625 11068.789062 L 9767.226562 11033.203125 C 9768.671875 11031.40625 9771.328125 11028.398438 9775.15625 11024.101562 Z M 9775.15625 11024.101562 " transform="matrix(0.1, 0, 0, -0.1, 0, 2171)"/>
<path fill-rule="nonzero" fill="rgb(100%, 100%, 100%)" fill-opacity="1" stroke-width="39.7649" stroke-linecap="butt" stroke-linejoin="miter" stroke="rgb(100%, 100%, 100%)" stroke-opacity="1" stroke-miterlimit="4" d="M 10027.1875 11221.289062 C 10045.585938 11225.3125 10060 11225.898438 10070.390625 11223.085938 C 10080.703125 11220.507812 10092.1875 11213.085938 10104.804688 11201.09375 C 10121.484375 11185.195312 10135.195312 11176.289062 10145.78125 11174.414062 C 10156.40625 11172.5 10166.796875 11175 10176.914062 11181.71875 C 10179.882812 11183.515625 10181.992188 11183.398438 10183.28125 11181.601562 C 10184.609375 11179.804688 10183.710938 11177.695312 10180.585938 11175.390625 C 10151.992188 11154.882812 10133.984375 11143.398438 10126.601562 11140.78125 C 10119.101562 11138.398438 10107.1875 11145.585938 10090.585938 11162.5 C 10074.492188 11178.90625 10061.914062 11190.3125 10052.8125 11196.601562 C 10043.710938 11203.007812 10034.21875 11206.09375 10024.414062 11205.78125 C 10014.492188 11205.703125 10002.695312 11200.703125 9988.671875 11190.585938 C 9983.359375 11186.796875 9977.773438 11181.914062 9971.835938 11175.898438 C 9975.9375 11169.21875 9980.507812 11162.304688 9985.46875 11155.390625 C 10004.296875 11129.21875 10016.914062 11112.5 10023.203125 11105.195312 C 10029.414062 11098.085938 10035.585938 11093.984375 10041.71875 11093.007812 C 10047.890625 11092.1875 10055.195312 11094.6875 10063.789062 11100.585938 C 10067.617188 11103.085938 10070 11103.59375 10071.210938 11101.914062 C 10072.617188 11100 10071.09375 11097.382812 10066.601562 11094.21875 L 9990.859375 11039.804688 C 9986.484375 11036.601562 9983.59375 11036.015625 9982.1875 11037.890625 C 9980.976562 11039.6875 9982.070312 11041.796875 9985.546875 11044.296875 C 9993.28125 11049.804688 9997.8125 11054.882812 9999.0625 11059.296875 C 10000.390625 11063.90625 10000.195312 11069.21875 9998.4375 11075.390625 C 9996.601562 11081.601562 9991.015625 11091.210938 9981.679688 11104.21875 L 9958.945312 11135.195312 L 9924.921875 11182.8125 C 9907.460938 11207.109375 9895.351562 11222.695312 9888.59375 11229.804688 C 9881.953125 11236.914062 9876.289062 11240.78125 9871.640625 11241.484375 C 9866.875 11242.1875 9858.984375 11239.804688 9847.890625 11234.101562 C 9845.507812 11232.890625 9843.828125 11233.007812 9842.8125 11234.414062 C 9841.640625 11236.09375 9843.203125 11238.398438 9847.460938 11241.484375 L 9936.5625 11308.59375 C 9961.5625 11326.484375 9983.085938 11334.804688 10001.210938 11333.203125 C 10019.414062 11331.796875 10033.515625 11324.101562 10043.515625 11310.3125 C 10049.804688 11301.484375 10053.203125 11291.796875 10053.90625 11281.289062 C 10054.609375 11270.78125 10053.007812 11261.796875 10049.101562 11253.984375 C 10045.195312 11246.289062 10037.890625 11235.390625 10027.1875 11221.289062 Z M 9966.328125 11183.59375 C 9985.625 11198.085938 9999.335938 11210 10007.382812 11219.414062 C 10015.507812 11228.789062 10020.117188 11239.882812 10021.289062 11252.8125 C 10022.5 11265.703125 10019.101562 11277.617188 10011.289062 11288.515625 C 10003.007812 11300 9991.992188 11307.304688 9978.164062 11310.390625 C 9964.375 11313.515625 9949.0625 11308.984375 9932.226562 11296.914062 C 9923.046875 11290.3125 9913.789062 11281.796875 9904.453125 11271.289062 C 9923.359375 11242.382812 9938.828125 11219.609375 9950.78125 11203.007812 C 9954.882812 11197.304688 9960.078125 11190.78125 9966.328125 11183.59375 Z M 9966.328125 11183.59375 " transform="matrix(0.1, 0, 0, -0.1, 0, 2171)"/>
<path fill-rule="nonzero" fill="rgb(100%, 100%, 100%)" fill-opacity="1" stroke-width="39.7649" stroke-linecap="butt" stroke-linejoin="miter" stroke="rgb(100%, 100%, 100%)" stroke-opacity="1" stroke-miterlimit="4" d="M 10247.8125 11499.6875 C 10258.007812 11489.414062 10271.09375 11474.296875 10286.914062 11454.101562 C 10286.914062 11453.007812 10286.601562 11452.1875 10285.898438 11451.796875 C 10285.195312 11451.40625 10284.101562 11451.289062 10282.695312 11451.71875 C 10268.203125 11459.296875 10255.703125 11464.296875 10245.195312 11466.484375 C 10234.6875 11468.789062 10225.195312 11469.21875 10216.796875 11467.695312 C 10208.28125 11466.40625 10195.703125 11460.898438 10178.90625 11451.015625 C 10163.085938 11441.71875 10151.210938 11433.515625 10143.085938 11426.210938 C 10142.8125 11424.609375 10143.59375 11422.382812 10145.3125 11419.414062 C 10145.703125 11418.710938 10146.40625 11417.304688 10147.304688 11415.195312 C 10151.289062 11405.898438 10164.609375 11382.109375 10187.109375 11343.789062 C 10188.085938 11342.109375 10189.492188 11339.882812 10191.40625 11337.109375 C 10199.804688 11341.601562 10205.585938 11344.804688 10208.59375 11346.601562 C 10222.304688 11354.609375 10230.898438 11362.304688 10234.6875 11369.882812 C 10238.398438 11377.695312 10238.59375 11389.609375 10235.3125 11405.703125 C 10234.6875 11408.398438 10235.117188 11410.195312 10236.484375 11411.015625 C 10238.59375 11412.1875 10240.585938 11411.289062 10242.382812 11408.085938 L 10245.585938 11401.210938 C 10249.6875 11392.109375 10254.414062 11383.085938 10259.804688 11373.984375 C 10268.398438 11359.296875 10276.484375 11346.09375 10283.90625 11334.609375 C 10286.09375 11331.015625 10286.210938 11328.515625 10284.101562 11327.304688 C 10282.617188 11326.40625 10280.78125 11327.109375 10278.789062 11329.414062 C 10268.984375 11340.898438 10258.789062 11347.304688 10248.203125 11348.59375 C 10237.695312 11350 10220.3125 11343.59375 10196.015625 11329.296875 C 10200.3125 11321.210938 10207.695312 11308.398438 10218.085938 11290.703125 C 10231.40625 11267.890625 10240.78125 11253.789062 10246.015625 11248.59375 C 10251.289062 11243.398438 10258.085938 11240.703125 10266.40625 11240.703125 C 10274.6875 11240.703125 10286.210938 11245.117188 10300.898438 11253.789062 C 10343.007812 11278.515625 10361.71875 11308.90625 10356.914062 11345.195312 C 10356.289062 11349.609375 10356.796875 11352.304688 10358.398438 11353.28125 C 10360.195312 11354.296875 10361.796875 11353.59375 10363.085938 11351.210938 C 10363.90625 11349.882812 10364.414062 11348.398438 10364.804688 11346.484375 C 10365.390625 11344.101562 10368.28125 11335.507812 10373.59375 11320.703125 C 10374.804688 11317.5 10377.695312 11307.890625 10382.304688 11291.71875 L 10314.21875 11251.914062 C 10304.414062 11246.210938 10289.804688 11238.203125 10270.390625 11228.007812 C 10251.09375 11217.695312 10234.101562 11208.203125 10219.414062 11199.804688 C 10204.882812 11191.289062 10197.1875 11187.109375 10196.210938 11187.1875 C 10195.195312 11187.382812 10194.609375 11187.8125 10194.21875 11188.515625 C 10192.890625 11190.585938 10194.101562 11192.8125 10197.695312 11194.804688 C 10209.6875 11201.914062 10215.703125 11209.804688 10215.703125 11218.398438 C 10215.703125 11226.992188 10208.515625 11243.59375 10194.101562 11268.28125 L 10174.296875 11301.484375 L 10156.484375 11333.007812 C 10152.8125 11339.296875 10145.507812 11350.898438 10134.492188 11367.890625 C 10123.515625 11385 10116.992188 11394.6875 10114.882812 11396.796875 C 10112.890625 11398.984375 10109.804688 11400.390625 10105.585938 11401.210938 C 10101.40625 11402.109375 10093.90625 11401.015625 10083.007812 11397.890625 C 10079.6875 11396.992188 10077.617188 11397.382812 10076.71875 11398.984375 C 10075.507812 11401.015625 10076.796875 11403.085938 10080.585938 11405.3125 L 10114.804688 11423.007812 C 10126.796875 11429.296875 10155.703125 11445.898438 10201.484375 11472.8125 C 10231.601562 11490.507812 10247.109375 11499.414062 10247.8125 11499.6875 Z M 10247.8125 11499.6875 " transform="matrix(0.1, 0, 0, -0.1, 0, 2171)"/>
<path fill-rule="nonzero" fill="rgb(100%, 100%, 100%)" fill-opacity="1" stroke-width="39.7649" stroke-linecap="butt" stroke-linejoin="miter" stroke="rgb(100%, 100%, 100%)" stroke-opacity="1" stroke-miterlimit="4" d="M 10387.109375 11573.59375 C 10409.804688 11553.515625 10430.3125 11535.898438 10448.710938 11520.898438 C 10470.898438 11503.085938 10488.59375 11487.890625 10501.992188 11475.507812 C 10515.390625 11463.085938 10529.882812 11451.40625 10545.390625 11440.390625 C 10552.109375 11490.195312 10555 11558.90625 10554.296875 11646.40625 L 10623.203125 11676.09375 C 10625.703125 11676.796875 10627.382812 11676.289062 10628.203125 11674.609375 C 10628.90625 11672.890625 10627.890625 11671.289062 10625.3125 11669.882812 C 10613.515625 11663.515625 10606.40625 11657.5 10603.984375 11651.796875 C 10601.601562 11646.210938 10601.914062 11638.710938 10604.804688 11629.101562 C 10607.890625 11619.609375 10614.296875 11602.304688 10624.101562 11577.1875 C 10633.984375 11551.992188 10642.5 11531.210938 10649.609375 11514.6875 C 10663.398438 11483.085938 10671.71875 11464.609375 10674.492188 11459.609375 C 10677.1875 11454.609375 10681.015625 11451.289062 10685.78125 11449.6875 C 10690.585938 11448.085938 10698.28125 11448.789062 10708.90625 11451.796875 C 10711.992188 11452.5 10713.90625 11452.109375 10714.609375 11450.390625 C 10715.390625 11448.59375 10713.984375 11446.914062 10710.390625 11445.390625 L 10643.203125 11416.40625 L 10625.585938 11408.710938 C 10621.601562 11406.992188 10619.296875 11406.992188 10618.515625 11408.90625 C 10617.8125 11410.507812 10618.710938 11412.109375 10621.210938 11413.59375 C 10630.3125 11418.984375 10635.898438 11423.59375 10638.007812 11427.304688 C 10640.195312 11431.015625 10640.78125 11436.09375 10639.804688 11442.617188 C 10638.789062 11449.296875 10633.085938 11464.414062 10622.890625 11488.085938 L 10590 11572.382812 L 10573.984375 11614.101562 C 10572.617188 11617.1875 10571.484375 11618.515625 10570.585938 11618.085938 C 10569.21875 11617.5 10568.398438 11616.09375 10568.28125 11613.90625 L 10563.515625 11531.40625 C 10560.390625 11478.789062 10558.984375 11445.3125 10559.296875 11431.015625 L 10560 11400.3125 C 10560.117188 11390.898438 10560 11385.585938 10559.609375 11384.492188 C 10559.296875 11383.515625 10558.59375 11382.890625 10557.695312 11382.382812 C 10556.289062 11381.796875 10554.492188 11382.8125 10552.304688 11385.390625 C 10547.109375 11391.601562 10526.601562 11409.6875 10490.703125 11439.609375 C 10471.289062 11456.796875 10448.59375 11476.09375 10422.5 11497.617188 C 10396.601562 11519.21875 10382.695312 11530.3125 10381.09375 11530.898438 C 10379.414062 11531.71875 10378.203125 11531.914062 10377.695312 11531.71875 C 10376.484375 11531.210938 10376.601562 11529.492188 10377.890625 11526.601562 L 10421.484375 11421.09375 L 10436.015625 11386.40625 C 10443.90625 11368.085938 10451.601562 11357.1875 10459.101562 11353.710938 C 10466.601562 11350.195312 10475 11350.585938 10484.296875 11354.609375 C 10490.3125 11357.1875 10493.90625 11357.304688 10495 11354.6875 C 10495.78125 11352.890625 10494.6875 11351.289062 10491.796875 11350.117188 L 10488.203125 11348.710938 L 10476.992188 11343.59375 L 10452.617188 11333.203125 C 10441.992188 11328.59375 10428.59375 11322.109375 10412.382812 11313.710938 C 10410.585938 11313.984375 10409.492188 11314.609375 10409.101562 11315.507812 C 10408.085938 11317.8125 10409.609375 11319.882812 10413.59375 11321.796875 C 10424.882812 11327.109375 10431.796875 11334.609375 10433.984375 11344.21875 C 10436.289062 11353.789062 10431.914062 11371.289062 10420.898438 11396.40625 L 10407.304688 11426.71875 L 10376.289062 11504.804688 C 10368.398438 11522.695312 10360.390625 11533.90625 10352.304688 11538.085938 C 10344.101562 11542.5 10334.609375 11543.085938 10323.789062 11539.882812 C 10319.21875 11538.59375 10316.40625 11538.789062 10315.703125 11540.703125 C 10314.804688 11542.695312 10315.898438 11544.414062 10319.101562 11545.898438 C 10320.898438 11546.601562 10323.007812 11547.5 10325.390625 11548.398438 Z M 10387.109375 11573.59375 " transform="matrix(0.1, 0, 0, -0.1, 0, 2171)"/>
<path fill-rule="nonzero" fill="rgb(100%, 100%, 100%)" fill-opacity="1" stroke-width="39.7649" stroke-linecap="butt" stroke-linejoin="miter" stroke="rgb(100%, 100%, 100%)" stroke-opacity="1" stroke-miterlimit="4" d="M 10683.398438 11694.21875 L 10716.289062 11703.789062 L 10766.210938 11720.3125 C 10772.109375 11722.1875 10775.585938 11721.914062 10776.289062 11719.492188 C 10776.796875 11717.695312 10775.585938 11716.09375 10772.5 11714.609375 C 10759.6875 11708.710938 10752.890625 11701.289062 10752.109375 11692.304688 C 10751.289062 11683.398438 10758.90625 11653.710938 10774.804688 11603.203125 C 10780.703125 11584.609375 10787.8125 11563.789062 10796.09375 11540.898438 C 10804.296875 11518.007812 10809.804688 11504.414062 10812.382812 11500.195312 C 10815.117188 11496.09375 10818.515625 11493.085938 10822.8125 11491.289062 C 10826.992188 11489.414062 10833.90625 11489.414062 10843.398438 11491.09375 C 10846.484375 11491.601562 10848.398438 11491.015625 10848.90625 11489.101562 C 10849.609375 11486.914062 10848.59375 11485.390625 10845.898438 11484.492188 L 10801.210938 11470.78125 L 10763.398438 11458.28125 C 10759.296875 11456.992188 10756.796875 11457.5 10756.015625 11460 C 10755.195312 11462.5 10756.484375 11464.296875 10759.804688 11465.3125 C 10770.898438 11469.101562 10776.289062 11474.804688 10775.898438 11482.617188 C 10775.585938 11490.390625 10769.296875 11513.59375 10757.109375 11552.304688 C 10745.3125 11589.6875 10735.390625 11619.804688 10727.382812 11642.695312 C 10719.492188 11665.585938 10713.203125 11679.101562 10708.28125 11683.28125 C 10703.515625 11687.382812 10696.289062 11688.710938 10686.914062 11687.1875 C 10683.398438 11686.796875 10681.289062 11687.617188 10680.585938 11689.804688 C 10679.882812 11691.914062 10680.898438 11693.398438 10683.398438 11694.21875 Z M 10683.398438 11694.21875 " transform="matrix(0.1, 0, 0, -0.1, 0, 2171)"/>
<path fill-rule="nonzero" fill="rgb(100%, 100%, 100%)" fill-opacity="1" stroke-width="39.7649" stroke-linecap="butt" stroke-linejoin="miter" stroke="rgb(100%, 100%, 100%)" stroke-opacity="1" stroke-miterlimit="4" d="M 10838.203125 11741.601562 L 10930.507812 11761.40625 C 10935.78125 11762.5 10938.710938 11761.914062 10939.101562 11759.6875 C 10939.609375 11757.5 10937.890625 11755.78125 10934.101562 11754.609375 C 10925.585938 11751.914062 10919.609375 11748.085938 10916.289062 11743.28125 C 10912.890625 11738.515625 10911.289062 11730.78125 10911.09375 11720.390625 C 10911.210938 11710 10914.6875 11688.515625 10921.71875 11655.78125 C 10930.117188 11616.71875 10936.992188 11589.804688 10942.382812 11575.117188 C 10948.007812 11560.585938 10957.695312 11550 10971.484375 11543.59375 C 10985.507812 11537.304688 11002.695312 11536.40625 11023.398438 11540.78125 C 11045 11545.507812 11060.585938 11553.085938 11070.117188 11563.789062 C 11079.609375 11574.414062 11084.296875 11588.203125 11084.101562 11605.117188 C 11084.101562 11621.992188 11078.28125 11657.617188 11066.71875 11711.71875 C 11060.703125 11739.609375 11053.984375 11757.1875 11046.40625 11764.609375 C 11038.710938 11772.109375 11029.296875 11774.609375 11018.007812 11772.1875 C 11013.398438 11771.210938 11010.898438 11771.992188 11010.3125 11774.609375 C 11009.804688 11776.992188 11012.5 11778.90625 11018.59375 11780.195312 L 11092.1875 11796.015625 C 11095.585938 11796.71875 11097.5 11795.78125 11098.007812 11793.398438 C 11098.398438 11791.601562 11097.1875 11790.3125 11094.609375 11789.296875 C 11085.585938 11786.015625 11079.296875 11781.601562 11075.898438 11776.09375 C 11072.5 11770.585938 11071.484375 11761.796875 11072.695312 11749.609375 C 11073.90625 11737.382812 11076.914062 11719.804688 11081.914062 11696.71875 C 11088.085938 11667.8125 11092.1875 11643.085938 11094.296875 11622.5 C 11096.484375 11601.914062 11095.195312 11585.898438 11090.195312 11574.414062 C 11085.117188 11563.085938 11076.09375 11552.8125 11063.085938 11543.59375 C 11050.117188 11534.492188 11033.203125 11527.695312 11012.304688 11523.203125 C 10990.898438 11518.710938 10971.914062 11518.203125 10955.390625 11521.71875 C 10938.984375 11525.390625 10926.796875 11532.1875 10919.101562 11542.1875 C 10911.40625 11552.382812 10905.117188 11568.59375 10900.3125 11591.015625 L 10890.195312 11642.1875 C 10880.507812 11687.5 10872.617188 11714.6875 10866.484375 11723.90625 C 10860.507812 11733.28125 10851.09375 11736.796875 10838.203125 11734.296875 C 10834.101562 11733.398438 10831.796875 11733.984375 10831.289062 11736.09375 C 10830.78125 11738.710938 10833.085938 11740.507812 10838.203125 11741.601562 Z M 10838.203125 11741.601562 " transform="matrix(0.1, 0, 0, -0.1, 0, 2171)"/>
<path fill-rule="nonzero" fill="rgb(100%, 100%, 100%)" fill-opacity="1" stroke-width="39.7649" stroke-linecap="butt" stroke-linejoin="miter" stroke="rgb(100%, 100%, 100%)" stroke-opacity="1" stroke-miterlimit="4" d="M 11229.804688 11812.1875 C 11244.414062 11785.585938 11257.890625 11762.1875 11270.195312 11741.914062 C 11285.195312 11717.695312 11296.796875 11697.5 11305.3125 11681.40625 C 11313.789062 11665.195312 11323.59375 11649.414062 11334.492188 11633.789062 C 11357.382812 11678.59375 11383.085938 11742.304688 11411.601562 11825 L 11486.40625 11830.117188 C 11489.101562 11829.882812 11490.507812 11828.90625 11490.585938 11826.992188 C 11490.78125 11825.117188 11489.296875 11823.90625 11486.289062 11823.515625 C 11473.203125 11821.40625 11464.414062 11818.085938 11460.195312 11813.515625 C 11456.09375 11809.101562 11453.90625 11801.914062 11453.398438 11791.914062 C 11453.203125 11781.914062 11453.398438 11763.398438 11454.296875 11736.40625 C 11455.195312 11709.414062 11456.289062 11686.992188 11457.617188 11669.101562 C 11460 11634.609375 11461.71875 11614.492188 11462.617188 11608.789062 C 11463.515625 11603.203125 11465.898438 11598.90625 11469.882812 11595.703125 C 11473.90625 11592.617188 11481.40625 11590.703125 11492.382812 11590 C 11495.585938 11589.6875 11497.304688 11588.59375 11497.382812 11586.71875 C 11497.5 11584.804688 11495.585938 11583.789062 11491.796875 11583.515625 L 11418.710938 11578.515625 L 11399.492188 11577.1875 C 11395.195312 11576.914062 11393.085938 11577.695312 11392.890625 11579.6875 C 11392.8125 11581.484375 11394.101562 11582.695312 11396.992188 11583.203125 C 11407.382812 11585.390625 11414.21875 11587.8125 11417.382812 11590.507812 C 11420.78125 11593.28125 11423.007812 11597.890625 11424.21875 11604.414062 C 11425.507812 11611.09375 11425.195312 11627.1875 11423.398438 11652.890625 L 11420.585938 11743.28125 L 11419.414062 11788.007812 C 11419.101562 11791.40625 11418.515625 11793.007812 11417.5 11792.890625 C 11416.015625 11792.890625 11414.804688 11791.796875 11413.90625 11789.6875 L 11381.914062 11713.59375 C 11361.40625 11664.882812 11348.984375 11633.789062 11344.492188 11620.3125 L 11334.882812 11591.09375 C 11331.796875 11582.1875 11330 11577.304688 11329.296875 11576.40625 C 11328.59375 11575.585938 11327.8125 11575.117188 11326.796875 11575.117188 C 11325.195312 11575 11323.90625 11576.484375 11322.695312 11579.6875 C 11319.804688 11587.304688 11306.484375 11611.09375 11282.695312 11651.289062 C 11270.117188 11673.90625 11255.195312 11699.6875 11237.695312 11728.710938 C 11220.507812 11757.695312 11211.210938 11772.8125 11209.804688 11773.90625 C 11208.515625 11775.195312 11207.5 11775.898438 11206.796875 11775.78125 C 11205.585938 11775.703125 11205.117188 11774.101562 11205.3125 11771.015625 L 11211.289062 11656.992188 L 11213.398438 11619.414062 C 11214.804688 11599.414062 11218.398438 11586.601562 11224.21875 11580.898438 C 11230.117188 11575.117188 11238.203125 11572.617188 11248.28125 11573.28125 C 11254.804688 11573.789062 11258.203125 11572.617188 11258.398438 11569.804688 C 11258.515625 11567.890625 11256.992188 11566.796875 11253.90625 11566.484375 L 11250 11566.40625 L 11237.695312 11565.390625 L 11211.289062 11563.710938 C 11199.6875 11562.890625 11184.882812 11561.210938 11166.796875 11558.710938 C 11165.3125 11559.609375 11164.414062 11560.507812 11164.414062 11561.484375 C 11164.21875 11563.984375 11166.289062 11565.507812 11170.703125 11565.898438 C 11183.203125 11567.1875 11192.109375 11571.992188 11197.382812 11580.3125 C 11202.695312 11588.59375 11204.414062 11606.40625 11202.5 11633.90625 L 11199.804688 11666.914062 L 11196.484375 11750.898438 C 11195.195312 11770.507812 11191.289062 11783.59375 11185 11790.3125 C 11178.789062 11797.1875 11170 11800.898438 11158.789062 11801.484375 C 11153.984375 11801.796875 11151.484375 11802.890625 11151.40625 11805 C 11151.210938 11807.1875 11152.890625 11808.398438 11156.40625 11808.710938 C 11158.203125 11808.789062 11160.507812 11808.90625 11163.203125 11808.984375 Z M 11229.804688 11812.1875 " transform="matrix(0.1, 0, 0, -0.1, 0, 2171)"/>
<path fill-rule="nonzero" fill="rgb(100%, 100%, 100%)" fill-opacity="1" stroke-width="39.7649" stroke-linecap="butt" stroke-linejoin="miter" stroke="rgb(100%, 100%, 100%)" stroke-opacity="1" stroke-miterlimit="4" d="M 11867.304688 11550.3125 C 11854.6875 11550.3125 11845 11550.703125 11838.007812 11551.71875 C 11819.6875 11554.21875 11802.304688 11561.796875 11785.78125 11574.296875 C 11769.296875 11586.914062 11756.796875 11603.398438 11748.515625 11623.789062 C 11740.117188 11643.984375 11737.617188 11665.898438 11740.78125 11689.414062 C 11745.585938 11723.90625 11761.914062 11752.382812 11789.6875 11774.882812 C 11817.695312 11797.5 11849.296875 11806.40625 11884.609375 11801.601562 C 11907.304688 11798.398438 11926.796875 11790.117188 11943.203125 11776.601562 C 11959.6875 11763.085938 11971.796875 11746.09375 11979.414062 11725.390625 C 11987.1875 11704.6875 11989.804688 11684.21875 11986.914062 11664.101562 C 11984.6875 11647.617188 11978.710938 11631.289062 11968.984375 11615 C 11959.296875 11598.789062 11947.617188 11585.585938 11933.984375 11575.195312 C 11920.390625 11564.6875 11905.195312 11556.210938 11888.515625 11549.492188 C 11871.796875 11542.890625 11852.5 11537.109375 11830.390625 11531.992188 C 11813.710938 11528.085938 11801.914062 11525 11795 11522.8125 C 11800.195312 11522.5 11804.21875 11522.109375 11807.109375 11521.71875 C 11816.09375 11520.507812 11823.90625 11517.890625 11830.585938 11514.101562 C 11837.109375 11510.3125 11847.5 11502.382812 11861.914062 11490.390625 C 11880.390625 11475.195312 11894.882812 11466.796875 11905.390625 11465.390625 C 11913.203125 11464.296875 11920 11465.117188 11925.898438 11467.890625 C 11931.71875 11470.585938 11938.90625 11476.015625 11947.5 11484.101562 C 11949.804688 11486.289062 11951.796875 11487.304688 11953.398438 11487.109375 C 11955.78125 11486.796875 11956.796875 11485.390625 11956.484375 11483.085938 C 11955.898438 11478.398438 11947.890625 11470.390625 11932.695312 11458.90625 C 11917.382812 11447.5 11899.882812 11443.085938 11880.195312 11445.898438 C 11870.3125 11447.1875 11860.117188 11451.09375 11849.492188 11457.5 C 11839.101562 11463.789062 11824.296875 11476.09375 11805 11494.609375 C 11793.984375 11505 11784.804688 11510.703125 11777.109375 11511.796875 C 11769.609375 11512.8125 11763.90625 11511.289062 11760 11507.304688 C 11756.289062 11503.085938 11753.085938 11496.015625 11750.585938 11486.015625 C 11748.984375 11479.101562 11746.914062 11474.414062 11744.414062 11471.796875 C 11742.109375 11469.21875 11738.398438 11468.203125 11733.398438 11468.90625 C 11730.195312 11469.414062 11727.304688 11471.09375 11724.804688 11473.90625 C 11722.382812 11476.796875 11721.40625 11480.195312 11721.992188 11483.984375 C 11722.890625 11490.117188 11727.1875 11496.992188 11735.117188 11504.6875 C 11743.007812 11512.1875 11752.890625 11518.203125 11764.804688 11522.8125 C 11776.71875 11527.382812 11795.507812 11532.617188 11821.210938 11538.59375 C 11844.882812 11544.101562 11860.195312 11548.007812 11867.304688 11550.3125 Z M 11783.90625 11693.007812 C 11781.09375 11672.5 11781.289062 11651.914062 11784.492188 11631.289062 C 11787.8125 11610.78125 11795 11594.414062 11806.09375 11582.1875 C 11817.1875 11569.804688 11831.015625 11562.5 11847.5 11560.195312 C 11871.71875 11556.914062 11892.8125 11565.585938 11910.78125 11586.09375 C 11928.90625 11606.796875 11940.195312 11633.59375 11944.6875 11666.40625 C 11948.984375 11697.382812 11945.3125 11725.390625 11933.59375 11750.3125 C 11921.992188 11775.195312 11903.789062 11789.414062 11878.90625 11792.890625 C 11854.492188 11796.210938 11833.515625 11787.5 11815.898438 11766.71875 C 11798.515625 11745.898438 11787.8125 11721.40625 11783.90625 11693.007812 Z M 11783.90625 11693.007812 " transform="matrix(0.1, 0, 0, -0.1, 0, 2171)"/>
<path fill-rule="nonzero" fill="rgb(100%, 100%, 100%)" fill-opacity="1" stroke-width="39.7649" stroke-linecap="butt" stroke-linejoin="miter" stroke="rgb(100%, 100%, 100%)" stroke-opacity="1" stroke-miterlimit="4" d="M 12054.609375 11771.210938 L 12146.289062 11748.90625 C 12151.484375 11747.617188 12153.789062 11745.898438 12153.28125 11743.710938 C 12152.8125 11741.484375 12150.507812 11740.703125 12146.484375 11741.289062 C 12137.695312 11742.5 12130.703125 11741.71875 12125.585938 11738.789062 C 12120.507812 11735.898438 12115.585938 11729.804688 12111.015625 11720.390625 C 12106.484375 11711.09375 12100.390625 11690.117188 12092.5 11657.695312 C 12083.007812 11618.789062 12077.5 11591.484375 12076.09375 11576.015625 C 12074.6875 11560.390625 12078.90625 11546.71875 12088.59375 11534.882812 C 12098.398438 11523.203125 12113.515625 11514.882812 12133.984375 11509.882812 C 12155.507812 11504.6875 12172.890625 11504.804688 12186.09375 11510.195312 C 12199.296875 11515.703125 12209.492188 11526.09375 12216.71875 11541.40625 C 12223.984375 11556.601562 12234.296875 11591.210938 12247.304688 11645 C 12254.101562 11672.695312 12255.585938 11691.484375 12251.992188 11701.40625 C 12248.398438 11711.484375 12240.898438 11717.890625 12229.6875 11720.585938 C 12225.195312 11721.71875 12223.203125 11723.59375 12223.90625 11726.09375 C 12224.414062 11728.59375 12227.695312 11728.984375 12233.710938 11727.617188 L 12306.914062 11709.804688 C 12310.195312 11708.90625 12311.601562 11707.304688 12311.015625 11704.882812 C 12310.585938 11703.203125 12308.984375 11702.5 12306.210938 11702.8125 C 12296.601562 11703.710938 12289.101562 11702.382812 12283.59375 11698.984375 C 12278.203125 11695.507812 12273.398438 11688.007812 12269.21875 11676.484375 C 12265 11665 12260 11647.8125 12254.414062 11624.804688 C 12247.5 11596.210938 12240.507812 11572.109375 12233.398438 11552.617188 C 12226.40625 11533.085938 12218.203125 11519.296875 12208.789062 11511.09375 C 12199.296875 11503.085938 12186.71875 11497.695312 12170.898438 11495.117188 C 12155.3125 11492.617188 12137.109375 11493.789062 12116.40625 11498.90625 C 12095.195312 11504.101562 12077.890625 11511.796875 12064.492188 11522.1875 C 12051.289062 11532.695312 12043.28125 11544.101562 12040.703125 11556.484375 C 12038.203125 11568.984375 12039.609375 11586.289062 12045 11608.59375 L 12058.085938 11659.101562 C 12068.984375 11704.101562 12073.789062 11732.109375 12072.304688 11743.007812 C 12071.015625 11754.101562 12063.984375 11761.289062 12051.40625 11764.609375 C 12047.304688 11765.585938 12045.390625 11767.1875 12045.898438 11769.21875 C 12046.601562 11771.796875 12049.414062 11772.382812 12054.609375 11771.210938 Z M 12054.609375 11771.210938 " transform="matrix(0.1, 0, 0, -0.1, 0, 2171)"/>
<path fill-rule="nonzero" fill="rgb(100%, 100%, 100%)" fill-opacity="1" stroke-width="39.7649" stroke-linecap="butt" stroke-linejoin="miter" stroke="rgb(100%, 100%, 100%)" stroke-opacity="1" stroke-miterlimit="4" d="M 12438.007812 11670.703125 L 12446.210938 11667.890625 C 12450.195312 11636.09375 12452.695312 11583.398438 12453.710938 11509.492188 C 12454.414062 11462.1875 12455.898438 11432.695312 12458.203125 11421.210938 C 12460.585938 11409.804688 12467.695312 11401.40625 12479.6875 11396.210938 C 12483.515625 11394.414062 12485 11392.5 12484.296875 11390.195312 C 12483.710938 11388.59375 12482.382812 11388.085938 12480.390625 11388.789062 L 12477.890625 11389.804688 C 12467.304688 11394.492188 12453.59375 11399.6875 12436.71875 11405.390625 C 12410.78125 11414.296875 12393.984375 11419.492188 12386.40625 11421.210938 C 12382.695312 11422.5 12381.210938 11424.21875 12381.914062 11426.289062 C 12382.5 11427.890625 12384.101562 11428.398438 12386.992188 11427.8125 C 12397.382812 11425.3125 12405 11424.609375 12409.609375 11425.78125 C 12414.414062 11426.992188 12417.695312 11430.195312 12419.492188 11435.585938 C 12421.289062 11440.703125 12421.992188 11454.6875 12421.71875 11477.617188 L 12421.601562 11511.914062 C 12415.507812 11513.984375 12387.695312 11523.085938 12338.398438 11539.101562 C 12314.804688 11510.390625 12301.601562 11491.71875 12298.59375 11483.203125 C 12296.210938 11475.898438 12297.304688 11469.492188 12302.1875 11463.90625 C 12307.1875 11458.28125 12312.617188 11454.296875 12318.398438 11451.914062 C 12322.695312 11450.117188 12324.414062 11448.007812 12323.59375 11445.585938 C 12323.28125 11444.609375 12322.304688 11443.984375 12320.585938 11443.59375 C 12301.796875 11451.015625 12290.507812 11455.3125 12286.601562 11456.601562 C 12266.601562 11463.398438 12253.085938 11467.8125 12246.09375 11469.609375 C 12242.304688 11470.898438 12240.703125 11472.695312 12241.40625 11474.804688 C 12242.109375 11476.71875 12244.21875 11477.304688 12247.695312 11476.71875 C 12261.914062 11473.789062 12275.585938 11479.492188 12288.515625 11493.789062 C 12301.484375 11508.085938 12323.085938 11534.296875 12353.203125 11572.617188 C 12380.703125 11607.382812 12408.984375 11640.117188 12438.007812 11670.703125 Z M 12417.617188 11634.296875 C 12398.90625 11615.390625 12374.804688 11586.992188 12345.390625 11548.984375 C 12357.8125 11545.507812 12366.71875 11542.695312 12372.109375 11540.898438 L 12421.796875 11523.007812 C 12421.71875 11536.796875 12421.09375 11555.3125 12420.117188 11578.515625 C 12418.59375 11606.210938 12417.8125 11624.804688 12417.617188 11634.296875 Z M 12417.617188 11634.296875 " transform="matrix(0.1, 0, 0, -0.1, 0, 2171)"/>
<path fill-rule="nonzero" fill="rgb(100%, 100%, 100%)" fill-opacity="1" stroke-width="39.7649" stroke-linecap="butt" stroke-linejoin="miter" stroke="rgb(100%, 100%, 100%)" stroke-opacity="1" stroke-miterlimit="4" d="M 12693.515625 11298.398438 C 12687.695312 11300.585938 12684.414062 11301.914062 12683.59375 11302.1875 C 12679.414062 11304.101562 12671.796875 11307.617188 12660.703125 11312.890625 C 12649.6875 11318.085938 12626.484375 11328.203125 12591.210938 11343.398438 L 12547.304688 11362.1875 C 12545.585938 11362.890625 12539.609375 11365.195312 12529.296875 11369.101562 C 12518.90625 11372.890625 12512.617188 11375.3125 12510.390625 11376.210938 C 12501.601562 11380 12497.8125 11383.007812 12498.789062 11385.3125 C 12499.492188 11387.109375 12501.71875 11387.382812 12505.195312 11386.015625 C 12516.71875 11381.914062 12525.507812 11380.898438 12531.601562 11383.085938 C 12537.8125 11385.390625 12543.28125 11390 12548.203125 11396.914062 C 12553.085938 11403.90625 12562.890625 11424.296875 12577.382812 11458.203125 L 12604.101562 11520 C 12612.8125 11540.117188 12617.890625 11554.492188 12619.414062 11563.28125 C 12621.09375 11571.992188 12620 11579.6875 12616.09375 11586.210938 C 12612.382812 11592.890625 12607.1875 11598.007812 12600.390625 11601.601562 C 12596.914062 11603.515625 12595.585938 11605.507812 12596.40625 11607.617188 C 12597.304688 11609.6875 12599.414062 11610 12602.8125 11608.59375 C 12603.59375 11608.203125 12605.117188 11607.5 12607.1875 11606.40625 C 12625.117188 11597.5 12646.289062 11587.8125 12670.898438 11577.304688 L 12701.601562 11564.6875 C 12704.6875 11563.398438 12705.78125 11561.484375 12704.804688 11559.21875 C 12703.90625 11557.1875 12701.796875 11556.796875 12698.398438 11558.28125 C 12690.195312 11561.796875 12682.695312 11563.085938 12675.78125 11562.304688 C 12668.90625 11561.40625 12663.710938 11559.21875 12660 11555.703125 C 12656.484375 11552.304688 12652.109375 11544.414062 12646.914062 11532.1875 L 12610.390625 11450.898438 L 12591.09375 11405.117188 C 12585 11390.898438 12581.601562 11381.40625 12580.898438 11376.71875 C 12580.390625 11371.914062 12581.289062 11366.914062 12583.59375 11361.796875 C 12585.898438 11356.796875 12592.109375 11352.1875 12602.1875 11347.890625 C 12603.007812 11347.5 12613.515625 11343.398438 12633.59375 11335.585938 C 12650.390625 11331.015625 12667.890625 11332.695312 12686.09375 11340.585938 C 12704.414062 11348.398438 12717.890625 11356.71875 12726.601562 11365.390625 C 12729.101562 11367.890625 12731.289062 11368.710938 12733.203125 11367.890625 C 12735.117188 11367.109375 12735.507812 11365.3125 12734.296875 11362.5 C 12732.890625 11359.296875 12726.289062 11348.398438 12714.414062 11329.804688 C 12702.5 11311.40625 12695.585938 11301.015625 12693.515625 11298.398438 Z M 12693.515625 11298.398438 " transform="matrix(0.1, 0, 0, -0.1, 0, 2171)"/>
<path fill-rule="nonzero" fill="rgb(100%, 100%, 100%)" fill-opacity="1" stroke-width="39.7649" stroke-linecap="butt" stroke-linejoin="miter" stroke="rgb(100%, 100%, 100%)" stroke-opacity="1" stroke-miterlimit="4" d="M 12841.992188 11502.5 L 12872.382812 11486.601562 L 12919.804688 11463.789062 C 12925.390625 11461.015625 12927.695312 11458.515625 12926.484375 11456.289062 C 12925.703125 11454.609375 12923.59375 11454.296875 12920.390625 11455.3125 C 12907.109375 11460 12897.109375 11459.296875 12890.195312 11453.515625 C 12883.515625 11447.617188 12868.28125 11420.898438 12844.6875 11373.515625 C 12836.015625 11356.09375 12826.71875 11336.210938 12816.796875 11313.90625 C 12806.796875 11291.71875 12801.289062 11278.203125 12800.3125 11273.28125 C 12799.296875 11268.515625 12799.6875 11263.90625 12801.484375 11259.6875 C 12803.28125 11255.390625 12808.203125 11250.585938 12816.210938 11245.195312 C 12818.789062 11243.515625 12819.6875 11241.71875 12818.789062 11239.882812 C 12817.8125 11237.890625 12816.015625 11237.5 12813.398438 11238.789062 L 12771.796875 11260 L 12735.898438 11277.1875 C 12731.992188 11279.101562 12730.585938 11281.289062 12731.71875 11283.515625 C 12732.890625 11285.898438 12735.117188 11286.289062 12738.203125 11284.6875 C 12748.789062 11279.6875 12756.601562 11280.117188 12761.796875 11286.015625 C 12766.914062 11291.796875 12778.59375 11312.890625 12796.601562 11349.21875 C 12814.101562 11384.296875 12827.890625 11412.890625 12838.085938 11434.882812 C 12848.28125 11456.796875 12853.085938 11471.015625 12852.5 11477.304688 C 12851.796875 11483.710938 12847.617188 11489.609375 12839.804688 11495 C 12836.914062 11497.1875 12836.015625 11499.21875 12836.992188 11501.289062 C 12838.007812 11503.28125 12839.6875 11503.710938 12841.992188 11502.5 Z M 12841.992188 11502.5 " transform="matrix(0.1, 0, 0, -0.1, 0, 2171)"/>
<path fill-rule="nonzero" fill="rgb(100%, 100%, 100%)" fill-opacity="1" stroke-width="39.7649" stroke-linecap="butt" stroke-linejoin="miter" stroke="rgb(100%, 100%, 100%)" stroke-opacity="1" stroke-miterlimit="4" d="M 13058.398438 11374.882812 C 13050.195312 11380.195312 13044.296875 11383.90625 13040.78125 11385.898438 C 13017.304688 11399.414062 12997.5 11404.296875 12981.289062 11400.585938 C 12965.117188 11396.796875 12953.90625 11391.71875 12947.8125 11385 C 12945.703125 11382.695312 12943.398438 11382.109375 12941.015625 11383.515625 C 12940 11384.101562 12939.21875 11385.195312 12938.789062 11386.796875 C 12946.796875 11399.414062 12958.90625 11415.703125 12975.3125 11435.507812 C 12980.585938 11432.617188 12983.90625 11430.78125 12985.3125 11430 C 12993.789062 11425.117188 13005 11418.085938 13018.710938 11408.984375 C 13033.59375 11399.296875 13056.796875 11385.390625 13088.515625 11367.1875 C 13120.898438 11348.59375 13142.304688 11336.796875 13152.5 11331.914062 C 13161.914062 11327.695312 13174.414062 11321.09375 13190 11312.109375 C 13186.796875 11303.515625 13183.007812 11294.804688 13178.59375 11286.09375 C 13173.59375 11276.09375 13170.390625 11268.90625 13168.789062 11264.609375 C 13168.398438 11263.59375 13167.890625 11262.695312 13167.304688 11261.71875 C 13165.898438 11259.101562 13163.90625 11258.398438 13161.71875 11259.804688 C 13160.3125 11260.585938 13159.296875 11261.71875 13158.789062 11263.085938 C 13158.515625 11264.609375 13158.203125 11268.90625 13158.007812 11276.015625 C 13157.382812 11288.085938 13155.3125 11298.085938 13151.796875 11306.09375 C 13148.28125 11314.101562 13143.203125 11321.015625 13136.40625 11326.601562 C 13129.6875 11332.1875 13115 11341.796875 13092.382812 11355.390625 C 13081.601562 11339.6875 13070.195312 11321.289062 13058.085938 11300.195312 C 13017.890625 11230.3125 12995.703125 11188.203125 12991.40625 11173.984375 C 12987.304688 11159.804688 12994.414062 11147.304688 13012.8125 11136.796875 C 13017.304688 11134.21875 13018.90625 11131.992188 13017.890625 11130.117188 C 13016.601562 11128.007812 13013.90625 11128.085938 13009.609375 11130.585938 L 12909.21875 11188.203125 C 12906.601562 11189.804688 12905.898438 11191.484375 12907.109375 11193.59375 C 12908.203125 11195.703125 12911.40625 11195.195312 12916.484375 11192.304688 C 12925.117188 11187.304688 12933.398438 11185.78125 12941.40625 11187.617188 C 12949.492188 11189.414062 12956.40625 11194.21875 12961.914062 11202.109375 C 12967.5 11209.804688 12981.71875 11233.515625 13004.414062 11273.007812 C 13023.789062 11306.796875 13041.796875 11340.703125 13058.398438 11374.882812 Z M 13058.398438 11374.882812 " transform="matrix(0.1, 0, 0, -0.1, 0, 2171)"/>
<path fill-rule="nonzero" fill="rgb(100%, 100%, 100%)" fill-opacity="1" stroke-width="39.7649" stroke-linecap="butt" stroke-linejoin="miter" stroke="rgb(100%, 100%, 100%)" stroke-opacity="1" stroke-miterlimit="4" d="M 13271.914062 11115 C 13282.109375 11117.5 13298.90625 11123.203125 13322.1875 11131.914062 C 13345.585938 11140.585938 13359.609375 11146.289062 13364.492188 11148.90625 C 13369.492188 11151.601562 13372.8125 11154.101562 13374.414062 11156.484375 C 13377.304688 11160.703125 13377.5 11165.585938 13374.804688 11171.09375 C 13372.304688 11176.601562 13368.789062 11180.78125 13364.414062 11183.90625 C 13360.78125 11186.289062 13359.6875 11188.398438 13361.015625 11190.3125 C 13362.304688 11192.1875 13365.898438 11191.210938 13371.914062 11187.1875 L 13430.585938 11147.1875 C 13436.015625 11143.59375 13437.890625 11140.585938 13436.40625 11138.398438 C 13435.195312 11136.71875 13433.398438 11136.601562 13431.09375 11138.203125 C 13424.882812 11142.382812 13418.085938 11145 13410.390625 11146.09375 C 13402.890625 11147.109375 13391.796875 11145.507812 13377.109375 11141.289062 L 13325.117188 11123.085938 C 13297.890625 11113.710938 13282.5 11107.695312 13279.101562 11105.195312 C 13274.101562 11101.40625 13264.492188 11089.101562 13250.195312 11068.085938 C 13231.289062 11040.3125 13221.210938 11023.007812 13220 11016.289062 C 13218.789062 11009.414062 13224.296875 11001.09375 13236.289062 10991.289062 C 13239.296875 10988.710938 13240.3125 10986.484375 13239.101562 10984.804688 C 13237.695312 10982.695312 13235.195312 10982.890625 13231.484375 10985.390625 L 13190.3125 11014.804688 C 13180.195312 11021.601562 13171.796875 11027.109375 13165.117188 11031.015625 C 13159.609375 11034.101562 13156.210938 11036.210938 13154.6875 11037.1875 C 13150.78125 11039.882812 13149.492188 11042.304688 13150.898438 11044.296875 C 13151.992188 11046.015625 13154.101562 11045.898438 13157.109375 11043.984375 C 13167.304688 11037.617188 13176.484375 11036.796875 13184.609375 11041.601562 C 13192.8125 11046.40625 13201.484375 11055.703125 13210.898438 11069.609375 C 13221.289062 11084.6875 13228.59375 11097.617188 13233.085938 11108.203125 C 13234.296875 11110.898438 13235.585938 11122.382812 13236.992188 11142.695312 C 13238.515625 11163.085938 13238.984375 11186.40625 13238.710938 11212.382812 C 13238.515625 11238.515625 13237.109375 11255.3125 13234.414062 11262.695312 C 13231.71875 11270.195312 13228.085938 11275.78125 13223.28125 11279.609375 C 13219.804688 11282.5 13218.59375 11284.804688 13219.804688 11286.601562 C 13220.585938 11287.695312 13221.601562 11288.085938 13222.695312 11287.8125 C 13224.101562 11287.5 13227.109375 11285.703125 13231.992188 11282.304688 L 13300.117188 11236.09375 C 13304.804688 11232.890625 13307.5 11230.78125 13308.203125 11229.804688 C 13308.90625 11228.90625 13308.789062 11227.8125 13307.890625 11226.40625 C 13306.796875 11224.6875 13304.804688 11224.6875 13302.109375 11226.289062 C 13288.28125 11234.101562 13279.101562 11234.609375 13274.414062 11227.8125 C 13271.992188 11224.296875 13270.585938 11217.109375 13270.195312 11206.289062 C 13269.804688 11195.390625 13270.390625 11165 13271.914062 11115 Z M 13271.914062 11115 " transform="matrix(0.1, 0, 0, -0.1, 0, 2171)"/>
</svg>
